<svg width="3" height="3" viewBox="0 0 3 3" fill="none" xmlns="http://www.w3.org/2000/svg">
<g clip-path="url(#clip0_4_14)">
<path d="M1.5 2.75C1.32708 2.75 1.16458 2.71717 1.0125 2.6515C0.860417 2.58583 0.728125 2.49679 0.615625 2.38438C0.503125 2.27188 0.414083 2.13958 0.3485 1.9875C0.282917 1.83542 0.250083 1.67292 0.25 1.5C0.25 1.32708 0.282833 1.16458 0.3485 1.0125C0.414167 0.860417 0.503208 0.728125 0.615625 0.615625C0.728125 0.503125 0.860417 0.414083 1.0125 0.3485C1.16458 0.282917 1.32708 0.250083 1.5 0.25C1.67292 0.25 1.83542 0.282833 1.9875 0.3485C2.13958 0.414167 2.27188 0.503208 2.38438 0.615625C2.49688 0.728125 2.58596 0.860417 2.65162 1.0125C2.71729 1.16458 2.75008 1.32708 2.75 1.5C2.75 1.67292 2.71717 1.83542 2.6515 1.9875C2.58583 2.13958 2.49679 2.27188 2.38438 2.38438C2.27188 2.49688 2.13958 2.58596 1.9875 2.65162C1.83542 2.71729 1.67292 2.75008 1.5 2.75Z" fill="#F2F2F2"/>
</g>
<defs>
<clipPath id="clip0_4_14">
<rect width="3" height="3" fill="white"/>
</clipPath>
</defs>
</svg>
