<svg width="17" height="17" viewBox="0 0 17 17" fill="none" xmlns="http://www.w3.org/2000/svg">
<g clip-path="url(#clip0_4_9)">
<path d="M5.83879 5.19917L1.31963 5.85438L1.23959 5.87067C1.11842 5.90284 1.00796 5.96659 0.919484 6.05541C0.831011 6.14423 0.767696 6.25494 0.736004 6.37623C0.704313 6.49752 0.70538 6.62505 0.739097 6.7458C0.772813 6.86655 0.837972 6.97618 0.927919 7.06351L4.20184 10.2503L3.42975 14.7518L3.42054 14.8297C3.41313 14.955 3.43915 15.08 3.49595 15.192C3.55274 15.3039 3.63827 15.3988 3.74378 15.4668C3.84929 15.5349 3.97098 15.5736 4.0964 15.5792C4.22182 15.5847 4.34645 15.5568 4.45754 15.4983L8.49929 13.3733L12.5318 15.4983L12.6027 15.5309C12.7196 15.577 12.8467 15.5911 12.9708 15.5718C13.095 15.5526 13.2118 15.5006 13.3093 15.4213C13.4068 15.342 13.4814 15.2382 13.5255 15.1205C13.5696 15.0029 13.5816 14.8756 13.5603 14.7518L12.7875 10.2503L16.0629 7.0628L16.1181 7.00259C16.1971 6.90538 16.2488 6.78899 16.2681 6.66528C16.2874 6.54156 16.2736 6.41494 16.228 6.29832C16.1824 6.18169 16.1067 6.07923 16.0087 6.00137C15.9106 5.92351 15.7937 5.87304 15.6698 5.85509L11.1506 5.19917L9.13042 1.10501C9.07196 0.986385 8.98147 0.886496 8.86918 0.816647C8.75689 0.746798 8.62729 0.709778 8.49504 0.709778C8.3628 0.709778 8.2332 0.746798 8.12091 0.816647C8.00862 0.886496 7.91812 0.986385 7.85967 1.10501L5.83879 5.19917Z" fill="#FFD600"/>
</g>
<defs>
<clipPath id="clip0_4_9">
<rect width="17" height="17" fill="white"/>
</clipPath>
</defs>
</svg>
